<mxfile host="Electron" modified="2023-06-17T23:23:59.074Z" agent="Mozilla/5.0 (Windows NT 10.0; Win64; x64) AppleWebKit/537.36 (KHTML, like Gecko) draw.io/21.4.0 Chrome/112.0.5615.204 Electron/24.5.1 Safari/537.36" etag="eq9ViGB3LyfUUPXx2GqQ" version="21.4.0" type="device">
  <diagram id="ffdf1fe9-55f1-dcc0-cf92-92b4ba324bc5" name="Page-1">
    <mxGraphModel dx="1200" dy="775" grid="0" gridSize="10" guides="1" tooltips="1" connect="1" arrows="1" fold="1" page="1" pageScale="1" pageWidth="3300" pageHeight="4681" background="#ffffff" math="0" shadow="0">
      <root>
        <mxCell id="0" />
        <mxCell id="1" parent="0" />
        <mxCell id="28" value="" style="edgeStyle=orthogonalEdgeStyle;rounded=0;html=1;entryX=0;entryY=0.5;jettySize=auto;orthogonalLoop=1;strokeColor=#000000;strokeWidth=3;fontSize=30;" parent="1" target="5" edge="1">
          <mxGeometry relative="1" as="geometry">
            <Array as="points">
              <mxPoint x="684" y="830" />
              <mxPoint x="684" y="890" />
              <mxPoint x="825" y="890" />
            </Array>
            <mxPoint x="620" y="830" as="sourcePoint" />
          </mxGeometry>
        </mxCell>
        <mxCell id="5" value="" style="ellipse;whiteSpace=wrap;html=1;strokeColor=#1A1A1A;strokeWidth=3;fillColor=none;gradientColor=none;fontSize=30;dashed=1;" parent="1" vertex="1">
          <mxGeometry x="825" y="570" width="630" height="567" as="geometry" />
        </mxCell>
        <mxCell id="TbXsGNGCBO6QcD6lNv-W-39" value="" style="edgeStyle=orthogonalEdgeStyle;rounded=0;orthogonalLoop=1;jettySize=auto;html=1;" parent="1" source="6" target="7" edge="1">
          <mxGeometry relative="1" as="geometry" />
        </mxCell>
        <mxCell id="6" value="Principal" style="fontColor=#0066CC;verticalAlign=top;verticalLabelPosition=bottom;labelPosition=center;align=center;html=1;fillColor=#CCCCCC;strokeColor=#6881B3;gradientColor=none;gradientDirection=north;strokeWidth=2;shape=mxgraph.networks.pc;fontSize=30;" parent="1" vertex="1">
          <mxGeometry x="889" y="775" width="100" height="70" as="geometry" />
        </mxCell>
        <mxCell id="7" value="Backup" style="fontColor=#0066CC;verticalAlign=top;verticalLabelPosition=bottom;labelPosition=center;align=center;html=1;fillColor=#CCCCCC;strokeColor=#6881B3;gradientColor=none;gradientDirection=north;strokeWidth=2;shape=mxgraph.networks.pc;fontSize=30;" parent="1" vertex="1">
          <mxGeometry x="889" y="920" width="100" height="70" as="geometry" />
        </mxCell>
        <mxCell id="17" value="&lt;br&gt;&lt;br&gt;" style="endArrow=classic;startArrow=classic;html=1;dashed=1;dashPattern=1 1;strokeColor=#000000;strokeWidth=5;fontSize=30;entryX=0.5;entryY=1;exitX=0.5;exitY=0;" parent="1" source="31" target="23" edge="1">
          <mxGeometry width="50" height="50" relative="1" as="geometry">
            <mxPoint x="1044.666666666667" y="940" as="sourcePoint" />
            <mxPoint x="1050.666666666667" y="810" as="targetPoint" />
          </mxGeometry>
        </mxCell>
        <mxCell id="23" value="&lt;font color=&quot;#0030f0&quot;&gt;keepalived&lt;/font&gt;" style="ellipse;whiteSpace=wrap;html=1;strokeColor=#1A1A1A;strokeWidth=2;fillColor=none;gradientColor=none;fontSize=30;" parent="1" vertex="1">
          <mxGeometry x="1000" y="747" width="150" height="80" as="geometry" />
        </mxCell>
        <mxCell id="29" value="&lt;font style=&quot;font-size: 30px&quot;&gt;&amp;nbsp; &amp;nbsp; &amp;nbsp; &amp;nbsp; &amp;nbsp; &amp;nbsp; &amp;nbsp; Internet&lt;/font&gt;" style="ellipse;shape=cloud;whiteSpace=wrap;html=1;strokeWidth=2;fontSize=30;align=left;fillColor=#f5f5f5;strokeColor=#666666;fontColor=#333333;gradientColor=#E3A3F0;" parent="1" vertex="1">
          <mxGeometry x="500" y="632.5" width="330" height="255" as="geometry" />
        </mxCell>
        <mxCell id="30" value="&lt;font color=&quot;#0030f0&quot;&gt;Virtual IP Address&lt;/font&gt;" style="text;html=1;strokeColor=none;fillColor=none;align=center;verticalAlign=middle;whiteSpace=wrap;rounded=0;fontSize=30;" parent="1" vertex="1">
          <mxGeometry x="670" y="930" width="140" height="20" as="geometry" />
        </mxCell>
        <mxCell id="31" value="&lt;font color=&quot;#0030f0&quot;&gt;keepalived&lt;/font&gt;" style="ellipse;whiteSpace=wrap;html=1;strokeColor=#1A1A1A;strokeWidth=2;fillColor=none;gradientColor=none;fontSize=30;" parent="1" vertex="1">
          <mxGeometry x="1000" y="950" width="150" height="90" as="geometry" />
        </mxCell>
        <mxCell id="36" value="VRRP" style="text;html=1;strokeColor=none;fillColor=none;align=center;verticalAlign=middle;whiteSpace=wrap;rounded=0;fontSize=30;fontColor=#5BF074;" parent="1" vertex="1">
          <mxGeometry x="1055" y="887.5" width="40" height="20" as="geometry" />
        </mxCell>
        <mxCell id="38" style="edgeStyle=orthogonalEdgeStyle;rounded=0;html=1;exitX=0.5;exitY=0;entryX=0.5;entryY=0;jettySize=auto;orthogonalLoop=1;strokeColor=#4D4D4D;strokeWidth=3;fontSize=30;" parent="1" edge="1">
          <mxGeometry relative="1" as="geometry">
            <mxPoint x="1532.5" y="1260.0000000000002" as="sourcePoint" />
            <mxPoint x="1532.5" y="1260.0000000000002" as="targetPoint" />
          </mxGeometry>
        </mxCell>
        <mxCell id="21E_8Yp9L_a_FZqyMUbu-38" value="" style="shape=image;aspect=fixed;image=data:image/svg+xml,PD94bWwgdmVyc2lvbj0iMS4wIiBlbmNvZGluZz0idXRmLTgiPz4NCg0KPHN2ZyB2ZXJzaW9uPSIxLjEiIGlkPSJMYXllcl8xIiB4bWxucz0iaHR0cDovL3d3dy53My5vcmcvMjAwMC9zdmciIHhtbG5zOnhsaW5rPSJodHRwOi8vd3d3LnczLm9yZy8xOTk5L3hsaW5rIiB4PSIwcHgiIHk9IjBweCINCgkgdmlld0JveD0iMCAwIDg4Mi43IDY4OC42IiBzdHlsZT0iZW5hYmxlLWJhY2tncm91bmQ6bmV3IDAgMCA4ODIuNyA2ODguNjsiIHhtbDpzcGFjZT0icHJlc2VydmUiPg0KPHN0eWxlIHR5cGU9InRleHQvY3NzIj4NCgkuc3Qwe2ZpbGw6I0ZGRkZGRjt9DQoJLnN0MXtmaWxsOiMwMDk5MDA7fQ0KPC9zdHlsZT4NCjxwYXRoIGNsYXNzPSJzdDAiIGQ9Ik01MDYsNjg4LjZjLTExLjMsMC0yMS43LTQuNC0yOS40LTExLjVjLTgsNy4xLTE4LjEsMTEtMjguNSwxMWgtMC41Yy0xMS4yLTAuMi0yMi4yLTUtMzAuMi0xMy4zDQoJYy04LjEtOC4yLTEyLjYtMTkuMy0xMi41LTMwLjR2LTQuNWwtMTEuOCwyMy44bC01LDEwLjFjLTQuMiw4LjYtMTMsMTQuMS0yMi43LDE0LjFIMjY0LjljLTkuMSwwLTE3LjUtNS0yMi0xMi44bC01LjEtOS4yDQoJbC0xMy42LTIzLjl2M2MwLDIzLjgtMTkuNCw0My4yLTQzLjIsNDMuMmMtMTEuNiwwLTIyLjQtNC41LTMwLjYtMTIuN2wtNjMuOS02My45VjY0NWMwLDIzLjgtMTkuNCw0My4yLTQzLjIsNDMuMlMwLDY2OC45LDAsNjQ1VjUwNw0KCWMwLTE3LjUsMTAuNS0zMy4yLDI2LjctNDBjNS4zLTIuMiwxMC44LTMuMywxNi41LTMuM2MxMS42LDAsMjIuNCw0LjUsMzAuNiwxMi43bDY0LDY0VjUwN2MwLTIzLjgsMTkuNC00My4yLDQzLjItNDMuMg0KCXM0My4yLDE5LjQsNDMuMiw0My4ydjMuN2wxMy40LTI0LjNsNC45LTkuMWM0LjQtOC4xLDEyLjktMTMuMywyMi4yLTEzLjNoMTA0LjdjOS43LDAsMTguNCw1LjUsMjIuNiwxNC4xbDUsMTAuMg0KCWMwLjMsMC40LDAuNCwwLjksMC42LDEuM2w3LjMsMTcuNWMwLTExLDQuNS0yMS45LDEyLjUtMzBjOC4xLTguMywxOS4xLTEzLjEsMzAuMi0xMy4zaDAuNWMxMC41LDAsMjAuOSw0LjEsMjksMTEuNQ0KCWM3LjYtNi45LDE3LjgtMTEuMSwyOC45LTExLjFjMjMuOCwwLDQzLjIsMTkuNCw0My4yLDQzLjJ2MzMuNWw2NC02NGM4LjEtOC4xLDE5LjEtMTIuNywzMC42LTEyLjdjNS43LDAsMTEuMiwxLjEsMTYuNSwzLjMNCgljNC41LDEuOCw4LjYsNC40LDEyLjEsNy42YzcuOS03LjEsMTgtMTAuOSwyOC43LTEwLjljMTEuNSwwLDIyLjMsNC40LDMwLjYsMTIuNmwzOC42LDM4LjRsMzguNi0zOC40YzguMi04LjEsMTkuMS0xMi42LDMwLjYtMTIuNg0KCWMxMS42LDAsMjIuNSw0LjUsMzAuNiwxMi44YzE2LjksMTYuOSwxNi44LDQ0LjQtMC4xLDYxLjJsLTM4LjQsMzguMmwzOC4yLDM4LjFjMTYuOSwxNi45LDE3LDQ0LjMsMC4xLDYxLjINCgljLTguMSw4LjItMTkuMSwxMi44LTMwLjYsMTIuOGMtMTEuNiwwLTIyLjQtNC41LTMwLjYtMTIuN2wtMzguNC0zOC4zTDczMiw2NzUuNmMtOC4xLDguMS0xOSwxMi42LTMwLjYsMTIuNg0KCWMtMTAuNCwwLTIwLjYtMy45LTI4LjUtMTAuN2MtNy42LDYuOS0xNy44LDExLjItMjksMTEuMmMtMjMuOCwwLTQzLjItMTkuNC00My4yLTQzLjJ2LTMzLjVsLTY0LDY0DQoJQzUyOC41LDY4NC4xLDUxNy43LDY4OC42LDUwNiw2ODguNkw1MDYsNjg4LjZ6IE02ODcuMiw1OThsMjEuOS0yMS44bC0yMS45LTIxLjhWNTk4eiIvPg0KPHBhdGggY2xhc3M9InN0MSIgZD0iTTE4MS4xLDY2My4xYy00LjcsMC05LjMtMS44LTEyLjgtNS4zTDYxLjMsNTUwLjd2OTQuM2MwLDEwLTguMSwxOC0xOCwxOHMtMTgtOC4xLTE4LTE4VjUwNw0KCWMwLTcuMyw0LjQtMTMuOSwxMS4yLTE2LjdjNi44LTIuOCwxNC41LTEuMywxOS43LDMuOWwxMDYuOSwxMDdWNTA3YzAtMTAsOC4xLTE4LDE4LTE4YzEwLDAsMTgsOC4xLDE4LDE4djEzNy45DQoJQzE5OS4yLDY1NC45LDE5MS4xLDY2My4xLDE4MS4xLDY2My4xIE0yNjQuOSw0ODkuMmwtNSw5LjNsLTM4LjQsNjkuOGwtNSw4LjhsNSw4LjhsMzguNCw2Ny42bDUuMiw5LjJoMTAwLjZsNS0xMC4ybDI4LjctNTcuOQ0KCWwxMi45LTI2LjJoLTI5LjFsLTczLjQsMC4zYy05LjYtMC4yLTE4LjQsOC42LTE4LjQsMThjMCw5LjYsOC44LDE4LjIsMTguNCwxOGw0NC4zLTAuM2wtMTAuOCwyMS45aC01N0wyNTgsNTc2LjdsMjguNS01MS41aDYwLjYNCglsMTQuMSwyOWgzNi40bC0yMi45LTU1bC01LTEwLjJIMjY0LjkgTTQ0OC4xLDQ4OC45Yy05LjUsMC4xLTE4LDguOC0xNy45LDE4LjN2NDcuMmgzNi4ydi00Ny4yQzQ2Ni41LDQ5Ny42LDQ1Ny43LDQ4OC43LDQ0OC4xLDQ4OC45DQoJIE01MDYuMSw2NjMuNGMtMTAsMC0xOC04LjEtMTgtMTh2LTEzOGMwLTEwLDguMS0xOCwxOC0xOGMxMCwwLDE4LDguMSwxOCwxOHY5NC4zbDEwNy0xMDdjNS4yLTUuMiwxMi45LTYuNywxOS43LTMuOQ0KCXMxMS4yLDkuNCwxMS4yLDE2Ljd2MTM3LjljMCwxMC04LjEsMTgtMTgsMThjLTEwLDAtMTgtOC4xLTE4LTE4VjU1MUw1MTguOSw2NTguMUM1MTUuNSw2NjEuNSw1MTAuOSw2NjMuNCw1MDYuMSw2NjMuNCBNNzk2LjEsNTc2LjINCglsNTYuMi01Ni4xYzcuMS03LjEsNy4xLTE4LjUsMC4xLTI1LjZjLTcuMS03LjEtMTguNS03LjEtMjUuNi0wLjFsLTU2LjMsNTYuMmwtNTYuMy01Ni4yYy03LjEtNy4xLTE4LjUtNy4xLTI1LjYsMC4xDQoJYy03LjEsNy4xLTcuMSwxOC41LDAsMjUuNmw1Ni4yLDU2LjFsLTU2LjEsNTUuOWMtNy4xLDcuMS03LjEsMTguNS0wLjEsMjUuNmMzLjQsMy40LDgsNS40LDEyLjgsNS4zYzQuNiwwLDkuMi0xLjgsMTIuOC01LjNsNTYuMi01Ng0KCWw1Ni4yLDU2YzMuNCwzLjQsOCw1LjMsMTIuOCw1LjNjNC42LDAsOS4zLTEuOCwxMi44LTUuM2M3LjEtNy4xLDcuMS0xOC41LTAuMS0yNS42TDc5Ni4xLDU3Ni4yeiBNNDQ4LjEsNjYyLjkNCgljLTkuNS0wLjEtMTgtOC44LTE3LjktMTguM3YtNzUuN2gzNi4ydjc1LjdDNDY2LjUsNjU0LjIsNDU3LjcsNjYzLDQ0OC4xLDY2Mi45Ii8+DQo8cGF0aCBjbGFzcz0ic3QwIiBkPSJNNjE0LjEsNDg4LjRjLTE4LjctMC4yLTM2LjMtNy41LTQ5LjQtMjAuN0wzMzguMiwyNDEuM3YxNzYuNGMwLDM4LjktMzEuNyw3MC43LTcwLjcsNzAuN3MtNzAuNy0zMS43LTcwLjctNzAuNw0KCVY3MC43YzAtMjguNywxNy4xLTU0LjMsNDMuNi02NS4zYzguNi0zLjYsMTcuNy01LjQsMjctNS40YzE4LjksMCwzNi43LDcuNCw1MCwyMC43TDU0NCwyNDcuMVY3MC43QzU0NCwzMS43LDU3NS43LDAsNjE0LjYsMA0KCXM3MC43LDMxLjcsNzAuNyw3MC43djM0Ny4xYzAsMzguOS0zMS43LDcwLjctNzAuNyw3MC43SDYxNC4xTDYxNC4xLDQ4OC40eiIvPg0KPHBhdGggY2xhc3M9InN0MSIgZD0iTTYxNC42LDQ2My4yYy0xMS44LDAtMjMuNS00LjYtMzIuMi0xMy4zTDMxMy4xLDE4MC41djIzNy4yYzAsMjUuMi0yMC40LDQ1LjUtNDUuNSw0NS41cy00NS41LTIwLjQtNDUuNS00NS41DQoJdi0zNDdjMC0xOC41LDExLjEtMzUsMjguMS00Mi4xczM2LjYtMy4yLDQ5LjYsOS45bDI2OS4zLDI2OS40VjcwLjdjMC0yNS4yLDIwLjQtNDUuNSw0NS41LTQ1LjVjMjUuMiwwLDQ1LjUsMjAuNCw0NS41LDQ1LjV2MzQ3LjENCglDNjYwLjEsNDQyLjksNjM5LjgsNDYzLjIsNjE0LjYsNDYzLjIiLz4NCjwvc3ZnPg0K;" vertex="1" parent="1">
          <mxGeometry x="1140" y="603" width="192" height="150" as="geometry" />
        </mxCell>
        <mxCell id="21E_8Yp9L_a_FZqyMUbu-39" value="" style="shape=image;verticalLabelPosition=bottom;labelBackgroundColor=default;verticalAlign=top;aspect=fixed;imageAspect=0;image=https://samhobbs.co.uk/sites/default/files/ModSecurityLogo.png;" vertex="1" parent="1">
          <mxGeometry x="1184" y="776.5" width="256.87" height="67" as="geometry" />
        </mxCell>
        <mxCell id="21E_8Yp9L_a_FZqyMUbu-40" value="" style="shape=image;verticalLabelPosition=bottom;labelBackgroundColor=default;verticalAlign=top;aspect=fixed;imageAspect=0;image=https://owasp.org/www-project-modsecurity-core-rule-set/assets/images/CRS-logo-full_size-512x257.png;" vertex="1" parent="1">
          <mxGeometry x="960.9999999999999" y="631" width="177.16" height="88.93" as="geometry" />
        </mxCell>
        <mxCell id="21E_8Yp9L_a_FZqyMUbu-41" value="" style="shape=image;verticalLabelPosition=bottom;labelBackgroundColor=default;verticalAlign=top;aspect=fixed;imageAspect=0;image=https://www.finsmes.com/wp-content/uploads/2022/10/crowdsec_logo-1024x691.png;" vertex="1" parent="1">
          <mxGeometry x="1184" y="880" width="194.13" height="131" as="geometry" />
        </mxCell>
      </root>
    </mxGraphModel>
  </diagram>
</mxfile>
